<svg width="38" height="40" viewBox="0 0 38 40" fill="none" xmlns="http://www.w3.org/2000/svg">
<g clip-path="url(#clip0_11_405)">
<path d="M29.6931 0H7.81398C3.4991 0 0 3.73167 0 8.33333V31.6667C0 36.2683 3.4991 40 7.81398 40H29.6931C34.0095 40 37.5071 36.2683 37.5071 31.6667V8.33333C37.5071 3.73167 34.0095 0 29.6931 0ZM17.1907 16.9983L11.5022 20L17.1907 22.9933V26.6667L7.81398 21.775V18.2233L17.1907 13.3333V16.9983ZM29.6931 21.775L20.3163 26.6667V22.9933L26.0049 20L20.3163 16.9983V13.3333L29.6931 18.225V21.775Z" fill="#4D13D1"/>
</g>
<defs>
<clipPath id="clip0_11_405">
<rect width="37.5071" height="40" fill="white"/>
</clipPath>
</defs>
</svg>
