<svg width="38" height="40" viewBox="0 0 38 40" fill="none" xmlns="http://www.w3.org/2000/svg">
<g clip-path="url(#clip0_11_410)">
<path fill-rule="evenodd" clip-rule="evenodd" d="M21.3883 40H3.15392C1.41296 40 0 38.5067 0 36.6667V3.33333C0 1.49333 1.41296 0 3.15392 0H25.2314C26.9723 0 28.3853 1.49333 28.3853 3.33333V10H25.2314V5H3.15392V33.3333H20.5005V37.5C20.5005 38.3733 20.7875 39.4583 21.3883 40ZM35.4816 11.6667C36.7873 11.6667 37.847 12.7867 37.847 14.1667V37.5C37.847 38.8767 36.7889 40 35.4816 40H24.4429C23.1356 40 22.0774 38.875 22.0774 37.5V14.1667C22.0774 12.7883 23.1387 11.6667 24.4429 11.6667H35.4816ZM14.1926 35C15.0631 35 15.7696 35.7467 15.7696 36.6667C15.7696 37.5867 15.0631 38.3333 14.1926 38.3333C13.3222 38.3333 12.6157 37.5867 12.6157 36.6667C12.6157 35.7467 13.3222 35 14.1926 35ZM29.9622 38.3333C29.0902 38.3333 28.3853 37.5867 28.3853 36.6667C28.3853 35.7467 29.0902 35 29.9622 35C30.8327 35 31.5376 35.7467 31.5376 36.6667C31.5376 37.5867 30.8327 38.3333 29.9622 38.3333ZM36.2701 33.3333V16.6267H23.6544V33.3333H36.2701ZM30.7507 15C31.1844 15 31.5392 14.6267 31.5392 14.1667C31.5392 13.7067 31.1844 13.3333 30.7507 13.3333H29.1737C28.7385 13.3333 28.3853 13.7067 28.3853 14.1667C28.3853 14.6267 28.7385 15 29.1737 15H30.7507Z" fill="#4D13D1"/>
</g>
<defs>
<clipPath id="clip0_11_410">
<rect width="37.847" height="40" fill="white"/>
</clipPath>
</defs>
</svg>
