<svg width="38" height="40" viewBox="0 0 38 40" fill="none" xmlns="http://www.w3.org/2000/svg">
<path d="M20.5005 20L19.4155 13.3333H18.4552L17.3466 20C16.4067 20.5783 15.7696 21.64 15.7696 22.8717C15.7696 24.7117 17.1826 26.205 18.9235 26.205C20.6645 26.205 22.0774 24.7117 22.0774 22.8717C22.0774 21.64 21.4404 20.5783 20.5005 20ZM18.9235 6.66667C10.2156 6.66667 3.15393 14.1283 3.15393 23.3333C3.15393 32.5383 10.2156 40 18.9235 40C27.6315 40 34.6931 32.5383 34.6931 23.3333C34.6931 14.1283 27.6315 6.66667 18.9235 6.66667ZM18.9235 36.6667C11.9676 36.6667 6.30785 30.685 6.30785 23.3333C6.30785 15.9817 11.9676 10 18.9235 10C25.8795 10 31.5392 15.9817 31.5392 23.3333C31.5392 30.685 25.8795 36.6667 18.9235 36.6667ZM15.7696 3.635V0H22.0774V3.635C19.8098 3.23 17.99 3.23833 15.7696 3.635ZM30.2445 7.345L32.4633 5L34.6931 7.35667L32.61 9.55833C31.8814 8.75167 31.0898 8.015 30.2445 7.345ZM10.2502 23.3333C10.2502 23.7933 9.89701 24.1667 9.46177 24.1667C9.02653 24.1667 8.67329 23.7933 8.67329 23.3333C8.67329 22.8733 9.02653 22.5 9.46177 22.5C9.89701 22.5 10.2502 22.8733 10.2502 23.3333ZM29.1738 23.3333C29.1738 23.7933 28.8205 24.1667 28.3853 24.1667C27.95 24.1667 27.5968 23.7933 27.5968 23.3333C27.5968 22.8733 27.95 22.5 28.3853 22.5C28.8205 22.5 29.1738 22.8733 29.1738 23.3333ZM19.712 33.3333C19.712 33.7933 19.3588 34.1667 18.9235 34.1667C18.4883 34.1667 18.135 33.7933 18.135 33.3333C18.135 32.8733 18.4883 32.5 18.9235 32.5C19.3588 32.5 19.712 32.8733 19.712 33.3333ZM13.4042 30C13.4042 30.46 13.0509 30.8333 12.6157 30.8333C12.1804 30.8333 11.8272 30.46 11.8272 30C11.8272 29.54 12.1804 29.1667 12.6157 29.1667C13.0509 29.1667 13.4042 29.54 13.4042 30ZM26.0198 30C26.0198 30.46 25.6666 30.8333 25.2314 30.8333C24.7961 30.8333 24.4429 30.46 24.4429 30C24.4429 29.54 24.7961 29.1667 25.2314 29.1667C25.6666 29.1667 26.0198 29.54 26.0198 30ZM13.4042 15C13.4042 15.46 13.0509 15.8333 12.6157 15.8333C12.1804 15.8333 11.8272 15.46 11.8272 15C11.8272 14.54 12.1804 14.1667 12.6157 14.1667C13.0509 14.1667 13.4042 14.54 13.4042 15ZM26.0198 15C26.0198 15.46 25.6666 15.8333 25.2314 15.8333C24.7961 15.8333 24.4429 15.46 24.4429 15C24.4429 14.54 24.7961 14.1667 25.2314 14.1667C25.6666 14.1667 26.0198 14.54 26.0198 15Z" fill="#4D13D1"/>
</svg>
